<svg width="189" height="172" viewBox="0 0 189 172" fill="none" xmlns="http://www.w3.org/2000/svg">
<path d="M154.198 101.796L155.829 83.3916C156.256 72.3453 153.618 61.6173 148.471 52.2299C143.306 42.7986 135.601 34.7191 125.933 29.0259C116.266 23.3303 105.406 20.4747 94.5561 20.4677C83.7051 20.4609 72.8346 23.3012 63.1454 28.9859C53.4715 34.664 45.7526 42.734 40.5706 52.153C35.4317 61.4938 32.7782 72.1755 33.1615 83.1845L34.8019 101.691L40.5611 166.687C40.7485 168.847 39.1275 170.755 36.9406 170.942L26.8336 171.815C20.7162 172.341 14.9364 170.352 10.5566 166.719C6.16977 163.084 3.17664 157.797 2.63947 151.753L0.0762837 122.787C-0.426101 116.785 1.58202 111.115 5.24152 106.809C7.53968 104.103 10.4913 101.932 13.8749 100.555L12.4746 84.7621L12.4649 84.2371C11.9903 69.3677 15.5097 54.9658 22.3971 42.3849C29.2915 29.7882 39.5598 19.0012 52.5686 11.3671C65.4972 3.77956 80.034 -0.0108555 94.5648 2.33507e-05C109.096 0.0109022 123.628 3.82729 136.557 11.445C149.435 19.0311 159.742 29.877 166.671 42.5232C173.591 55.1567 177.145 69.6011 176.535 84.3999L175.118 100.655C178.504 102.031 181.456 104.204 183.755 106.91C187.433 111.236 189.449 116.948 188.915 122.993L186.356 151.855C185.823 157.899 182.827 163.185 178.442 166.819C174.062 170.452 168.279 172.444 162.162 171.916L152.055 171.041C149.868 170.856 148.245 168.948 148.434 166.786L154.194 101.794L154.198 101.796Z" fill="white"/>
</svg>
