<svg width="390" height="418" viewBox="0 0 390 418" fill="none" xmlns="http://www.w3.org/2000/svg">
<path d="M356 191.457L332.311 197.333L322.083 155.81C306.337 92.082 243.775 52.5291 182.549 67.8365C121.323 83.1439 84.3128 146.977 100.024 210.635L110.251 252.123L86.5622 258L76.3344 216.477C57.3901 139.728 102.308 62.3117 176.679 43.9429C251.051 25.574 326.828 73.1501 345.772 149.969L356 191.457Z" fill="#151617"/>
<path opacity="0.5" d="M316.507 115C315.224 115.01 314.036 114.328 313.408 113.219C287.172 66.9438 233.282 43.3667 181.105 55.336C174.905 56.8354 168.838 58.832 162.964 61.3059C162.105 61.6925 161.126 61.7218 160.246 61.3871C159.365 61.0525 158.657 60.3818 158.279 59.5254C157.522 57.7515 158.357 55.705 160.146 54.952C219.62 29.8853 288.58 53.624 319.572 109.833C320.492 111.512 319.88 113.612 318.198 114.546C317.682 114.836 317.1 114.992 316.507 115Z" fill="black"/>
<path opacity="0.5" d="M91.5906 139.963C91.2197 140.012 90.8442 140.012 90.4733 139.963C89.5435 139.675 88.7739 139.006 88.3498 138.116C87.9257 137.227 87.8855 136.198 88.2388 135.277C92.8352 120.678 100.136 107.108 109.746 95.2991C110.345 94.5569 111.214 94.0927 112.154 94.0124C113.095 93.9322 114.027 94.2426 114.739 94.873C116.241 96.2126 116.427 98.5226 115.158 100.092C106.201 111.138 99.3887 123.812 95.0821 137.443C94.621 138.995 93.184 140.033 91.5906 139.963Z" fill="black"/>
<path d="M85.177 259.999C83.522 260.047 82.0576 258.934 81.6609 257.327L71.3939 215.843C52.0552 137.163 98.3625 57.8514 174.733 39.0429C185.594 36.3671 196.738 35.0096 207.925 35C274.309 35 332.149 81.3005 348.569 147.499L358.907 189.089C359.118 189.989 358.967 190.936 358.485 191.726C358.012 192.527 357.241 193.109 356.34 193.343L332.465 199.179C330.614 199.65 328.725 198.557 328.211 196.718L317.944 155.234C305.04 102.921 259.787 66.6404 207.925 66.6404C169.124 66.5976 133.306 87.4458 114.185 121.203C99.0082 147.578 94.7193 178.832 102.23 208.319L112.462 249.803C112.709 250.697 112.569 251.654 112.075 252.44C111.594 253.249 110.809 253.832 109.895 254.057L86.0561 259.999H85.177ZM207.925 42.0312C197.261 42.0308 186.635 43.3175 176.28 45.8632C103.812 63.7576 59.8258 139.238 78.3558 214.296L87.779 252.37L104.691 248.045L95.198 210.007C87.2907 178.74 91.8818 145.624 107.997 117.687C123.63 90.1825 149.884 70.3133 180.604 62.7381C189.551 60.5956 198.725 59.545 207.925 59.6092C263.022 59.6092 311.087 98.2808 324.8 153.616L334.294 191.515L351.206 187.331L341.713 149.292C326.066 86.1168 271.004 42.0312 207.925 42.0312Z" fill="#284049"/>
<path d="M269.235 401C267.728 401.01 266.383 400.059 265.89 398.634C265.397 397.21 265.866 395.629 267.056 394.705C274.085 389.324 279.849 380.849 277.319 374.062C275.456 369.033 264.982 359.115 214.056 361.964C130.796 366.641 114.137 335.553 113.469 334.287C112.841 333.194 112.844 331.849 113.476 330.758C114.108 329.668 115.274 328.998 116.534 329C117.794 329.003 118.957 329.677 119.584 330.77C119.866 331.192 136.208 359.115 214.056 354.825C254.931 352.539 278.619 357.216 283.926 371.494C288.003 382.291 279.744 393.685 271.414 400.156C270.815 400.693 270.04 400.994 269.235 401Z" fill="#284049"/>
<path d="M147 329.141C112.827 337.526 78.2941 316.757 69.8681 282.752C61.4421 248.748 82.3139 214.385 116.487 206" fill="#280F2C" fill-opacity="0.93"/>
<path d="M69.8118 255.44C69.8118 254.948 69.6349 254.492 69.5288 254C64.7268 275.377 71.4065 297.699 87.1848 313.002C102.963 328.306 125.593 334.411 147 329.14L140.562 302.934C108.199 307.482 77.6245 286.957 69.8118 255.44Z" fill="#280F2C"/>
<path d="M130.902 334.998C118.562 335.008 106.45 331.663 95.8505 325.319C72.3405 311.566 59.6163 284.76 63.7826 257.762C67.949 230.763 88.1558 209.081 114.708 203.117C115.625 202.874 116.6 203.013 117.413 203.504C118.225 203.994 118.805 204.795 119.02 205.722C119.241 206.632 119.092 207.593 118.605 208.393C118.118 209.192 117.334 209.764 116.426 209.981C92.6667 215.306 74.5805 234.699 70.8475 258.855C67.1144 283.01 78.4964 306.996 99.5309 319.3C113.371 327.619 129.911 330.147 145.589 326.34C146.505 326.096 147.481 326.235 148.293 326.726C149.105 327.217 149.685 328.017 149.9 328.944C150.121 329.854 149.972 330.816 149.485 331.615C148.998 332.415 148.214 332.986 147.306 333.203C141.926 334.438 136.421 335.04 130.902 334.998Z" fill="#141325"/>
<path d="M172.236 312.013C175.01 323.278 169.989 334.262 161.036 336.579C152.083 338.895 142.498 331.42 139.724 320.155L114.76 218.981C111.987 207.716 117.043 196.732 125.996 194.416C134.949 192.1 144.499 199.715 147.308 210.945L172.236 312.013Z" fill="#151617"/>
<path d="M156.994 340C147.195 340 138.03 331.748 135.211 320.335L109.903 218.498C108.32 212.48 108.829 206.105 111.348 200.413C113.602 195.036 118.241 191.012 123.896 189.527C125.234 189.192 126.606 189.016 127.985 189C137.819 189 146.983 197.252 149.803 208.665L175.111 310.502C176.674 316.522 176.166 322.89 173.666 328.587C171.412 333.964 166.773 337.988 161.118 339.473C159.768 339.808 158.384 339.985 156.994 340ZM127.985 196.023C127.177 196.01 126.371 196.105 125.588 196.304C122.045 197.312 119.177 199.909 117.833 203.327C115.983 207.556 115.623 212.284 116.811 216.742L142.119 318.579C144.375 327.744 152.376 334.311 159.426 332.626C162.969 331.618 165.837 329.021 167.18 325.602C169.031 321.374 169.391 316.646 168.202 312.188L142.895 210.351C140.744 202.204 134.47 196.023 127.985 196.023Z" fill="#284049"/>
<path d="M338.513 282C372.686 273.615 393.558 239.252 385.132 205.248C376.706 171.243 342.173 150.474 308 158.859" fill="#280F2C" fill-opacity="0.93"/>
<path d="M335.173 254.464L311.433 158C309.268 158.29 307.12 158.7 305 159.228L335.173 282C368.386 273.753 388.947 240.395 381.463 206.898C376.275 230.28 358.347 248.702 335.173 254.464Z" fill="#280F2C"/>
<path d="M338.121 283.998C336.48 284.05 335.022 282.956 334.613 281.363C334.416 280.445 334.595 279.486 335.109 278.701C335.623 277.915 336.43 277.369 337.349 277.183C360.793 271.895 378.621 252.782 382.292 228.999C385.964 205.215 374.732 181.604 353.977 169.473C340.264 161.275 323.872 158.838 308.373 162.693C307.47 162.927 306.511 162.792 305.708 162.318C304.905 161.843 304.324 161.068 304.093 160.163C303.654 158.282 304.813 156.399 306.689 155.948C323.948 151.716 342.177 154.441 357.45 163.536C380.709 177.055 393.324 203.463 389.239 230.082C385.154 256.702 365.202 278.097 338.963 283.998H338.121Z" fill="#141325"/>
<path d="M307.694 279.15C310.5 290.404 320.076 297.824 329.021 295.609C337.966 293.393 343.052 282.35 340.211 270.991L315.271 169.85C312.5 158.596 302.924 151.176 293.979 153.391C285.034 155.607 279.948 166.65 282.789 178.009L307.694 279.15Z" fill="#151617"/>
<path d="M326.036 298C316.197 298 307.028 289.748 304.206 278.335L278.885 176.498C275.57 163.224 281.848 150.231 292.992 147.527C294.296 147.2 295.633 147.024 296.977 147C306.816 147 315.985 155.252 318.806 166.665L344.128 268.502C347.407 281.776 341.165 294.769 330.021 297.473C328.717 297.8 327.38 297.976 326.036 298ZM296.977 154.023C296.168 154.01 295.362 154.105 294.579 154.304C287.525 156.025 283.47 165.366 285.797 174.672L311.118 276.509C313.27 284.796 319.547 290.977 326.036 290.977C326.844 290.99 327.651 290.895 328.434 290.696C335.487 288.975 339.508 279.634 337.215 270.328L311.894 168.491C309.743 160.204 303.466 154.023 296.977 154.023Z" fill="#284049"/>
<path d="M36.6537 39.9999C35.728 40.0053 34.8382 39.6433 34.1809 38.9941L12.0302 16.934C11.3709 16.2827 11 15.3962 11 14.4713C11 13.5465 11.3709 12.6599 12.0302 12.0086C13.3886 10.6638 15.5826 10.6638 16.941 12.0086L38.9872 34.1034C40.3376 35.4563 40.3376 37.6412 38.9872 38.9941C38.3645 39.6102 37.5311 39.9695 36.6537 39.9999Z" fill="#284049"/>
<path d="M26.1091 58.9108H25.4014L2.82553 54.1898C0.926752 53.7886 -0.303928 51.8941 0.0654715 49.941C0.244888 48.9903 0.786826 48.1526 1.57087 47.6139C2.35492 47.0752 3.31614 46.8801 4.24095 47.0721L26.7814 51.7204C28.7357 51.9109 30.1695 53.6913 29.9838 55.6969C29.7982 57.7025 28.0634 59.1739 26.1091 58.9834V58.9108Z" fill="#284049"/>
<path d="M54.6398 28.9972C53.0152 29.0309 51.5993 27.8661 51.2746 26.2289L47.0681 4.15191C46.8894 3.2525 47.0656 2.31694 47.5579 1.55115C48.0502 0.785348 48.8182 0.252074 49.693 0.0686939C50.5725 -0.114225 51.4866 0.0716192 52.2323 0.584933C52.9779 1.09825 53.4933 1.89652 53.6639 2.80237L57.9377 24.8794C58.289 26.7404 57.1186 28.5457 55.3129 28.928C55.0931 28.9852 54.8663 29.0086 54.6398 28.9972Z" fill="#284049"/>
<path opacity="0.5" d="M152.484 289.999C150.833 290.043 149.378 288.918 148.998 287.305L139.098 245.331C138.646 243.447 139.801 241.552 141.678 241.098C143.555 240.644 145.443 241.803 145.896 243.687L155.901 285.661C156.121 286.566 155.972 287.521 155.488 288.316C155.004 289.11 154.224 289.678 153.321 289.894L152.484 289.999Z" fill="black"/>
<path opacity="0.5" d="M137.657 232.999C136.022 233.043 134.581 231.909 134.206 230.281L129.166 208.611C128.768 207.348 129.097 205.963 130.018 205.027C130.938 204.091 132.294 203.762 133.528 204.176C134.761 204.59 135.663 205.676 135.862 206.988L140.902 228.622C141.119 229.535 140.972 230.499 140.493 231.301C140.014 232.102 139.241 232.675 138.347 232.893L137.657 232.999Z" fill="black"/>
<path opacity="0.5" d="M321.252 244.999C319.57 245.047 318.081 243.938 317.678 242.336L299.091 167.332C298.87 166.391 299.056 165.402 299.604 164.599C300.152 163.797 301.014 163.252 301.986 163.093C303.9 162.654 305.816 163.812 306.275 165.685L324.898 240.654C325.124 241.561 324.971 242.517 324.475 243.313C323.978 244.109 323.179 244.678 322.253 244.893L321.252 244.999Z" fill="black"/>
<path opacity="0.5" d="M366.52 204C365.188 204.003 363.971 203.234 363.385 202.018C353.804 181.956 332.028 176.188 331.68 176.117C330.753 175.894 329.956 175.295 329.475 174.459C328.995 173.623 328.872 172.624 329.136 171.694C329.358 170.777 329.932 169.987 330.731 169.502C331.529 169.017 332.486 168.876 333.387 169.111C334.397 169.359 358.646 175.799 369.656 198.799C370.483 200.548 369.768 202.648 368.053 203.505C367.587 203.789 367.062 203.959 366.52 204Z" fill="black"/>
<path d="M384 170.711C383.72 168.946 382.277 167.595 380.492 167.425L363.865 164.35C361.848 163.876 360.273 162.306 359.796 160.296L356.85 143.66C356.98 142.399 356.379 141.174 355.299 140.503C354.219 139.832 352.851 139.832 351.771 140.503C350.692 141.174 350.09 142.399 350.22 143.66L347.274 160.296C346.798 162.306 345.222 163.876 343.205 164.35L326.508 167.286C324.723 167.455 323.28 168.807 323 170.571C323.264 172.326 324.729 173.655 326.508 173.751L343.135 175.988C345.161 176.352 346.768 177.897 347.204 179.902L350.22 197.376C350.091 198.625 350.686 199.837 351.754 200.502C352.823 201.166 354.177 201.166 355.246 200.502C356.314 199.837 356.909 198.625 356.78 197.376L359.796 179.657C360.249 177.662 361.848 176.124 363.865 175.743L380.492 173.576C382.183 173.537 383.63 172.355 384 170.711Z" fill="#423C3C"/>
<path d="M367.512 268.814C367.053 267.986 366.279 267.377 365.364 267.126C364.45 266.875 363.473 267.002 362.654 267.48C361.829 267.943 361.227 268.718 360.982 269.63C360.736 270.542 360.87 271.514 361.351 272.326C362.618 274.574 391.59 327.639 330.478 368.798C254.51 419.896 82.2267 421.477 46.3549 391.274C36.5684 383.057 31.464 374.207 31.1472 364.935C31.0934 358.735 32.8022 352.646 36.0756 347.376C34.5619 345.304 33.0834 343.232 31.64 341.124C26.6159 348.1 23.9411 356.486 24.001 365.076C24.353 376.489 30.3375 387.13 41.6025 396.683C57.5846 410.133 97.9272 418 147.669 418C155.907 418 164.426 417.789 173.121 417.333C240.288 413.821 299.007 398.368 334.245 374.663C400.919 329.921 367.828 269.447 367.512 268.814Z" fill="#284049"/>
</svg>
