<svg width="31" height="32" viewBox="0 0 31 32" fill="none" xmlns="http://www.w3.org/2000/svg">
<path d="M26.2642 4.78306C20.1597 -1.32138 10.2732 -1.35456 4.06921 4.58404L2.8415 3.32328C2.41014 2.89192 1.68021 3.09093 1.54763 3.68823L0.0216358 9.85903C-0.110969 10.423 0.386587 10.9208 0.950573 10.788L7.15454 9.32815C7.7516 9.19554 7.95083 8.46562 7.51949 8.03427L5.99327 6.50804C11.1357 1.59801 19.297 1.66442 24.3398 6.70729C29.4822 11.8497 29.4822 20.1769 24.3398 25.286C24.0412 25.5846 23.7427 25.8831 23.4108 26.1486C22.8469 26.613 22.7474 27.4755 23.2449 28.0397C23.5103 28.3716 23.9084 28.5373 24.2733 28.5373C24.5718 28.5373 24.8704 28.4378 25.1358 28.2387C25.5339 27.9069 25.8988 27.5753 26.2638 27.2103C32.4346 21.0395 32.4346 10.9871 26.264 4.78315L26.2642 4.78306Z" fill="white"/>
<path d="M13.1262 29.0015C12.8939 28.9684 12.6618 28.9351 12.4294 28.8689C11.6995 28.703 10.9696 29.2008 10.837 29.9307C10.7044 30.6606 11.1689 31.3905 11.8988 31.5231C12.1642 31.5895 12.4627 31.6226 12.7282 31.6557H12.9272C13.5907 31.6557 14.1547 31.1581 14.2541 30.4944C14.3537 29.7976 13.8561 29.101 13.1262 29.0015H13.1262Z" fill="white"/>
<path d="M6.9248 26.3144C6.32774 25.883 5.49833 25.9825 5.03386 26.5465C4.56941 27.1436 4.66891 27.973 5.26621 28.4377C5.49856 28.6036 5.69757 28.7695 5.92968 28.9352C6.16202 29.1012 6.42723 29.2007 6.72597 29.2007C7.15733 29.2007 7.55538 29.0016 7.82079 28.6367C8.25215 28.0396 8.11932 27.1769 7.48893 26.7455C7.28968 26.6129 7.09065 26.4801 6.92473 26.3144L6.9248 26.3144Z" fill="white"/>
<path d="M19.1663 28.4704C18.9339 28.5368 18.7349 28.603 18.5028 28.6694C17.7729 28.8685 17.3415 29.5984 17.5408 30.3283C17.7067 30.9253 18.2376 31.3236 18.8347 31.3236C18.9673 31.3236 19.067 31.3236 19.1996 31.2905C19.4651 31.2241 19.7305 31.1246 19.9959 31.0582C20.6928 30.8258 21.0908 30.0628 20.8585 29.3662C20.6594 28.6364 19.8631 28.2383 19.1664 28.4704L19.1663 28.4704Z" fill="white"/>
<path d="M3.14105 21.5704C2.84252 20.9069 2.01311 20.6084 1.34965 20.9069C0.68618 21.2387 0.387653 22.0348 0.686181 22.6983C0.818785 22.9637 0.918527 23.1958 1.05113 23.4613C1.28348 23.9257 1.74795 24.1912 2.24548 24.1912C2.47783 24.1912 2.67684 24.1247 2.87589 24.0252C3.53936 23.6603 3.77171 22.8639 3.43986 22.2005C3.34034 22.0017 3.24083 21.8027 3.14109 21.5703L3.14105 21.5704Z" fill="white"/>
<path d="M21.3559 18.3854L18.0052 16.2621C18.0052 16.1626 18.0716 16.0961 18.0716 15.9966C18.0716 14.8353 17.4081 13.8733 16.4459 13.3758V8.13373C16.4459 7.37073 15.8488 6.77344 15.0856 6.77344C14.3226 6.77344 13.7253 7.37049 13.7253 8.13373V13.4087C12.7633 13.9062 12.0996 14.8685 12.0996 16.0295C12.0996 17.6552 13.4265 19.0153 15.0854 19.0153C15.6162 19.0153 16.1138 18.8162 16.5452 18.5508L19.8959 20.6741C20.1283 20.8067 20.3604 20.8731 20.6258 20.8731C21.0572 20.8731 21.5216 20.6408 21.7537 20.2427C22.1853 19.6128 21.9863 18.7834 21.3559 18.3853L21.3559 18.3854ZM15.0856 17.0582C14.5216 17.0582 14.0238 16.5937 14.0238 15.9964C14.0238 15.4325 14.4883 14.9347 15.0856 14.9347C15.6496 14.9347 16.114 15.3991 16.114 15.9964C16.1473 16.5937 15.6495 17.0582 15.0856 17.0582Z" fill="white"/>
</svg>
