<svg width="32" height="34" viewBox="0 0 32 34" fill="none" xmlns="http://www.w3.org/2000/svg">
<path fill-rule="evenodd" clip-rule="evenodd" d="M18.2903 22.3084C20.1697 22.3084 21.6995 23.8273 21.6995 25.6942V30.4957C21.6995 30.8969 22.021 31.2185 22.4331 31.2278H25.4083C27.7529 31.2278 29.6589 29.3453 29.6589 27.0319V13.414C29.6479 12.6179 29.2686 11.8686 28.6177 11.3707L18.3262 3.16307C16.9447 2.06882 15.0122 2.06882 13.6261 3.16619L3.40482 11.3676C2.72892 11.8811 2.3496 12.6304 2.3418 13.4405V27.0319C2.3418 29.3453 4.24775 31.2278 6.59233 31.2278H9.59565C10.0187 31.2278 10.3621 30.8922 10.3621 30.4801C10.3621 30.3896 10.373 30.2991 10.3917 30.2132V25.6942C10.3917 23.8382 11.9121 22.3209 13.7775 22.3084H18.2903ZM25.408 33.5692H22.4047C20.6845 33.5286 19.3577 32.1783 19.3577 30.4956V25.694C19.3577 25.118 18.8784 24.6498 18.29 24.6498H13.785C13.209 24.6529 12.7329 25.1227 12.7329 25.694V30.48C12.7329 30.5971 12.7173 30.7095 12.6845 30.8156C12.5159 32.361 11.1953 33.5692 9.59532 33.5692H6.592C2.95649 33.5692 0 30.6361 0 27.0318V13.4295C0.0156098 11.8779 0.730536 10.4574 1.96527 9.52234L12.1662 1.33502C14.4125 -0.444487 17.5422 -0.444488 19.7838 1.3319L30.0581 9.52702C31.2648 10.4464 31.9797 11.8638 32 13.3967V27.0318C32 30.6361 29.0435 33.5692 25.408 33.5692Z" fill="white"/>
</svg>
