<svg width="431" height="607" viewBox="0 0 431 607" fill="none" xmlns="http://www.w3.org/2000/svg">
<path d="M318.559 224C288.856 224 260.365 212.203 239.365 191.197C218.36 170.192 206.559 141.708 206.559 112C206.559 82.2973 218.361 53.812 239.365 32.8067C260.365 11.8013 288.855 0 318.559 0C348.261 0 376.752 11.8021 397.756 32.8067C418.76 53.8112 430.559 82.296 430.559 112C430.559 141.708 418.762 170.193 397.756 191.197C376.75 212.201 348.261 224 318.559 224Z" fill="white"/>
<path d="M162.505 186.146C171.093 230.949 199.838 255.36 241.874 268.283C239.635 270.371 237.994 272.017 236.197 273.585C187.765 315.497 139.359 357.382 90.9705 399.246C88.0643 402.366 83.4705 403.241 79.6216 401.413C64.7616 396.621 51.4962 387.871 41.2416 376.101C37.1165 370.767 33.6582 364.95 30.9394 358.778C28.7312 354.778 27.9134 350.158 28.6165 345.643C29.3196 341.132 31.502 336.976 34.8196 333.84C76.4076 286.726 116.956 238.715 158.169 191.08C159.294 189.586 160.487 188.388 162.502 186.148L162.505 186.146ZM122.708 328.613C124.755 327.66 126.702 326.509 128.531 325.181C142.271 311.744 155.932 298.15 169.52 284.561H169.525C171.405 283.149 172.509 280.936 172.509 278.587C172.509 276.238 171.405 274.024 169.525 272.613C165.27 268.061 160.864 263.577 156.311 259.321H156.306C154.89 257.639 152.796 256.665 150.593 256.665C148.389 256.665 146.301 257.639 144.884 259.321C131.092 272.961 117.306 286.676 103.52 300.461C101.885 301.883 100.947 303.94 100.947 306.102C100.947 308.263 101.885 310.321 103.52 311.737C108 316.44 112.557 321.071 117.26 325.549H117.255C118.974 326.742 120.797 327.768 122.708 328.612L122.708 328.613Z" fill="white"/>
<path d="M15.2644 403.946L28.03 415.368L28.0352 415.373C24.9101 423.342 22.1914 431.467 19.8945 439.712C17.3737 450.238 18.0976 461.28 21.9778 471.384C25.8581 481.488 32.707 490.176 41.6232 496.311C51.2742 501.493 62.2112 503.816 73.1338 502.993C84.0609 502.175 94.5298 498.248 103.301 491.68C109.056 486.66 115.113 481.998 121.441 477.716C152.279 459.722 181.545 462.784 205.217 486.602C217.013 497.383 224.623 511.993 226.7 527.837C228.779 543.686 225.19 559.758 216.565 573.217C209.742 583.378 202.101 592.966 193.716 601.889C192.289 604.347 189.773 605.982 186.945 606.29C184.117 606.602 181.309 605.55 179.382 603.456C175.278 599.576 175.95 594.274 181.247 589.044C193.716 576.727 204.919 563.58 208.2 545.738C212.081 524.759 203.195 508.404 188.039 495.264H188.044C182.138 489.754 174.737 486.103 166.768 484.775C158.799 483.447 150.617 484.499 143.241 487.795C134.872 490.993 127.111 495.618 120.32 501.462C108.836 511.915 94.4561 518.634 79.0694 520.743C63.6841 522.848 48.0228 520.238 34.1521 513.259C12.4228 502.431 -3.18121 469.8 0.553454 443.374C2.55345 429.322 7.56904 415.874 15.2614 403.947L15.2644 403.946Z" fill="white"/>
<path d="M202.972 138.88C211.858 188.907 242.842 215.411 290.404 227.208C282.04 234.677 274.722 241.02 266.956 247.068L266.962 247.073C264.8 248.224 262.264 248.438 259.941 247.672C218.873 237.068 191.847 212.203 181.842 170.245V170.24C181.191 167.73 181.509 165.063 182.738 162.777C188.639 154.86 195.581 147.469 202.972 138.88Z" fill="white"/>
<path d="M70.9574 406.04L49.9787 413.509C35.7187 418.436 27.0574 409.029 17.948 400.889V400.884C17.4324 400.462 17.0678 399.889 16.9012 399.243C16.0782 385.727 15.7814 372.29 25.4116 359.894C34.672 381.248 51.916 393.566 70.9574 406.04Z" fill="white"/>
<path d="M143.838 275.6C146.973 279.855 150.41 282.542 150.186 284.86C149.963 287.173 146.228 289.412 143.989 291.657C141.749 289.49 138.015 287.475 137.718 285.011C137.416 282.542 140.853 279.777 143.838 275.6Z" fill="white"/>
</svg>
