<svg width="29" height="30" viewBox="0 0 29 30" fill="none" xmlns="http://www.w3.org/2000/svg">
<path d="M4.99851 30C2.23699 30 0 28.4389 0 26.5134V3.48656C0 1.56084 2.23699 -3.61405e-07 4.99851 -3.61405e-07C7.76002 -3.61405e-07 10 1.56114 10 3.48656V26.5134C10 28.4389 7.75968 30 4.99851 30V30Z" fill="#280F2C"/>
<path d="M23.9985 30C21.237 30 19 28.4389 19 26.5134V3.48656C19 1.56084 21.237 -3.61405e-07 23.9985 -3.61405e-07C26.76 -3.61405e-07 29 1.56114 29 3.48656L28.9997 26.5134C28.9997 28.4389 26.76 30 23.9985 30H23.9985Z" fill="#280F2C"/>
</svg>
