<svg width="66" height="53" viewBox="0 0 66 53" fill="none" xmlns="http://www.w3.org/2000/svg">
<g filter="url(#filter0_dd_982_937)">
<path fill-rule="evenodd" clip-rule="evenodd" d="M46.3405 12.8151L34.2682 20.7491V17.0892C34.2682 15.2651 33.2438 13.5924 31.6109 12.7496C29.9779 11.9084 28.0079 12.0372 26.502 13.0855C21.6365 16.4695 14.4701 21.4565 10.098 24.4967C8.78252 25.4129 8 26.9059 8 28.5004C8 30.0945 8.78253 31.5879 10.098 32.5041L26.502 43.9153C28.0083 44.9636 29.9782 45.0924 31.6109 44.2511C33.2438 43.4084 34.2682 41.7356 34.2682 39.9115V36.2516L46.3405 44.1856C47.8549 45.1815 49.8002 45.2697 51.4002 44.4189C53.002 43.5663 54 41.9118 54 40.1102V16.8901C54 15.0889 53.002 13.4339 51.4002 12.5814C49.8003 11.7303 47.855 11.8183 46.3405 12.8146V12.8151Z" fill="white"/>
</g>
<defs>
<filter id="filter0_dd_982_937" x="0" y="0" width="66" height="53" filterUnits="userSpaceOnUse" color-interpolation-filters="sRGB">
<feFlood flood-opacity="0" result="BackgroundImageFix"/>
<feColorMatrix in="SourceAlpha" type="matrix" values="0 0 0 0 0 0 0 0 0 0 0 0 0 0 0 0 0 0 127 0" result="hardAlpha"/>
<feOffset dx="4" dy="-4"/>
<feGaussianBlur stdDeviation="4"/>
<feComposite in2="hardAlpha" operator="out"/>
<feColorMatrix type="matrix" values="0 0 0 0 0.494118 0 0 0 0 0.490196 0 0 0 0 0.490196 0 0 0 0.25 0"/>
<feBlend mode="normal" in2="BackgroundImageFix" result="effect1_dropShadow_982_937"/>
<feColorMatrix in="SourceAlpha" type="matrix" values="0 0 0 0 0 0 0 0 0 0 0 0 0 0 0 0 0 0 127 0" result="hardAlpha"/>
<feOffset dx="-4" dy="4"/>
<feGaussianBlur stdDeviation="2"/>
<feComposite in2="hardAlpha" operator="out"/>
<feColorMatrix type="matrix" values="0 0 0 0 0.495833 0 0 0 0 0.491701 0 0 0 0 0.491701 0 0 0 0.25 0"/>
<feBlend mode="normal" in2="effect1_dropShadow_982_937" result="effect2_dropShadow_982_937"/>
<feBlend mode="normal" in="SourceGraphic" in2="effect2_dropShadow_982_937" result="shape"/>
</filter>
</defs>
</svg>
